<svg xmlns="http://www.w3.org/2000/svg" xmlns:xlink="http://www.w3.org/1999/xlink" viewBox="0 0 1100 800"><defs><style>.cls-1,.cls-28{fill:none;}.cls-2{fill:#fff;}.cls-3{fill:#f1f2f2;}.cls-4{fill:#eac5b0;}.cls-5{fill:#3b455a;}.cls-6{fill:#ccd2d9;}.cls-7{opacity:0.49;}.cls-8{clip-path:url(#clip-path);}.cls-9{fill:gray;}.cls-10{fill:#f2f2f2;}.cls-11{fill:#0cc19e;}.cls-12{fill:#b77858;}.cls-13{fill:#d34e4e;}.cls-14{fill:#474ebb;}.cls-15{opacity:0.05;}.cls-16{clip-path:url(#clip-path-2);}.cls-17{fill:#272525;}.cls-18{fill:#ebb044;}.cls-19{opacity:0.1;}.cls-20{clip-path:url(#clip-path-3);}.cls-21{fill:#8ec3cb;}.cls-22{clip-path:url(#clip-path-4);}.cls-23{opacity:0.24;}.cls-24{clip-path:url(#clip-path-5);}.cls-25{fill:#7fc5a3;}.cls-26{fill:#1a3151;}.cls-27{clip-path:url(#clip-path-6);}.cls-28{stroke:#fff;stroke-linecap:round;stroke-miterlimit:10;stroke-width:3px;stroke-dasharray:5 7;}</style><clipPath id="clip-path"><rect class="cls-1" x="421.08" y="228.47" width="0.15" height="0.26"/></clipPath><clipPath id="clip-path-2"><rect class="cls-1" x="600.91" y="393.32" width="167.09" height="202.9"/></clipPath><clipPath id="clip-path-3"><rect class="cls-1" x="574.08" y="162.57" width="147.38" height="128.54"/></clipPath><clipPath id="clip-path-4"><rect class="cls-1" x="800.88" y="503.24" width="124.49" height="35.94"/></clipPath><clipPath id="clip-path-5"><rect class="cls-1" x="922.98" y="421.74" width="65.87" height="106.94"/></clipPath><clipPath id="clip-path-6"><rect class="cls-1" x="278.05" y="243.02" width="81.47" height="98.33"/></clipPath></defs><title>logo-resource1</title><g id="object"><rect class="cls-2" width="1100" height="800"/><path class="cls-3" d="M522,668.12c-28.19.08-56.38.76-84.52,3.89-10.62,1.18-21,3.78-31.64,4.82-21.24,2.09-42.11,6-63.43,7.8-17.16,1.45-34.4,2.3-51.52,4.14a181.41,181.41,0,0,1-49.74-1.52c-11.79-2.11-23.64-3.3-35.23-6.68-13-3.79-27-6.5-40.56-6.4-19.27.13-38,.15-56.47,6.84-6.47,2.35-14.39,6.21-19.31,11.14C78.29,703.43,76.77,731.58,88,743.28c18.92,19.69,59.31,27.42,85.83,27.79,29.06.39,57.29-1.76,86.4-3,27-1.18,54-2.86,81.11-2.8,55.33.12,110.67,0,165.89-3.69,51.89-3.48,103.91-2.28,155.91-2.28,53.33,0,106.29.41,159.24,7.5,23.06,3.09,46.56,4.17,69.75,6.33,20.76,1.94,40.71,0,61.39-1.82a146.59,146.59,0,0,0,50.39-13.51c12.49-6,34.75-24.5,38.58-38.75,10.74-39.93-151.3-39-176.18-38.88-27.83.1-55.88,1-83.69,0-11.7-.44-23.23-2.73-34.64-5.24s-22.83-1.86-34.37-2.91c-48.09-4.37-96.29-3.73-144.53-3.73C553.38,668.21,537.67,668.07,522,668.12Z"/><path class="cls-4" d="M251.89,713.71a58,58,0,0,0,7.46-.71c1.29-24.7-1-50.58-2.06-75.4l-19,1a222,222,0,0,1,9.42,40.8c.29,2.2,3.85,34.28,4.21,34.29"/><path class="cls-5" d="M260.12,708.21c1.57-.28,2.49.42,3.54,1.37.6.56,1,1.34,1.75,1.74a5.91,5.91,0,0,0,2.32.56c4.57.46,15.12.27,9.5,7.92-5.1,7-18.65,4.19-26.48,2.3a2.7,2.7,0,0,1-1.43-.6,3.68,3.68,0,0,1-.8-1.56c-.89-3.27-2.11-7.35,1.91-8.72,1.72-.59,3.3.55,5.11-.08,1.49-.52,3-2.65,4.58-2.93"/><path class="cls-5" d="M271.52,652.5l-38.82-.75c-50.9-1-19.68-99.92-27.64-150.21-.61-3.89-1.21-8-.09-11.73,2.13-7.16,9.79-11.25,17.13-12.62,11.4-2.13,32.36.84,38.21,12.7,6.18,12.53,5.14,34.91,6.64,48.76a842.2,842.2,0,0,1,4.57,113.85"/><path class="cls-4" d="M181.55,714a58.75,58.75,0,0,0,7.49.4c4.94-24.23,6.48-50.18,9.16-74.87l-19-1.82a221.22,221.22,0,0,1,3.25,41.75c0,2.21-1.28,34.47-.93,34.54"/><path class="cls-5" d="M190.51,709.77c1.59,0,2.4.78,3.29,1.88a10,10,0,0,0,1.48,2,5.51,5.51,0,0,0,2.2.9c4.46,1.14,14.92,2.52,8.23,9.25-6.08,6.12-19.07,1.37-26.53-1.66a2.69,2.69,0,0,1-1.33-.81,3.71,3.71,0,0,1-.55-1.65c-.4-3.37-1-7.59,3.18-8.35,1.78-.32,3.18,1,5.07.68,1.55-.28,3.37-2.17,5-2.21"/><path class="cls-5" d="M210.06,656.37l-38.27-6.51q-4.42-76.24-5-152.65c0-3.94,0-8,1.65-11.62,3.16-6.76,11.35-9.66,18.81-9.93,11.6-.41,31.88,5.64,35.9,18.24,4.25,13.31-.1,35.29-.68,49.2a841.24,841.24,0,0,1-12.39,113.27"/><path class="cls-4" d="M305.9,327.61a2.59,2.59,0,0,0-.63.43c-1.62,1.62-1.49,3.43-2.6,5.43-.49.89-3.11,1.07-2.11,2.94.37.7,1.51,2.27,2.32,3.74,1.16,2.14,1.35,5.56,1,8.31-1.39,10.78-5.69,20.89-10.25,30.75a3.91,3.91,0,0,1-1,1.52c-.87.68-2.11.51-3.21.32A83.22,83.22,0,0,0,274,379.87c-4.59.08-9.29.57-13.4,2.61s-7.54,5.92-8,10.48a10.88,10.88,0,0,0,3.67,9.21c6.46,5.57,17.6,0,24.64-1.95a148.41,148.41,0,0,0,19.51-7,6.45,6.45,0,0,0,2.17-1.33,6.56,6.56,0,0,0,1.23-2.41,321.53,321.53,0,0,0,9.17-33.9c.71-3.15-.33-6.27.36-9.18.43-1.85,2.11-3,2.91-4.65a17.84,17.84,0,0,0,1.53-5.82c.26-3.58-2.57-6-4.84-8.32a3.82,3.82,0,0,0-1.66-1.22,5.6,5.6,0,0,0-3.44.37,10.79,10.79,0,0,0-2,.8"/><path class="cls-6" d="M273,392.27l.78-20.66c0,.44-31.18-3.09-33-3.24-7.11-.56-14.48-1.09-21.17,1.37-14.28,5.25-15.05,25.28-.2,30.51,16.12,5.69,35.77,5.69,52,.49a2.16,2.16,0,0,0,1-.51,2.23,2.23,0,0,0,.4-1.44l.25-6.52"/><path class="cls-6" d="M191.44,379.28A92.48,92.48,0,0,0,168.62,415c-8.29,23.26-8.45,48.1-8.52,72.44q0,12.15-.08,24.3c0,8,.68,9.69,9.34,8.64,16-2,32.74-5.26,47.28-12.39,6.92-3.4,13.39-7.68,20.65-10.36,10.55-3.88,21.37-2.12,31.82-4.65A247.52,247.52,0,0,1,259,453.45c-2.39-14.53-4.57-30.39-8.08-44.74-2.11-8.6-6-16.64-10-24.56-2.68-5.32-5.52-10.76-10.07-14.61-13.7-11.58-29.06-.1-39.4,9.74"/><path class="cls-4" d="M228.87,345.15c-2,4.28-5.16,7.85-7.77,11.77s-3.46,7.26-4.13,11.68c-.49,3.19-1.63,5.68-5.48,6.23-7.25,1-5.17-5-6.82-9.32-1.88-5-5.9-8.92-8.7-13.36-8.11-12.85-5.79-38.24,11.05-43.66,18.43-5.93,27.8,23.67,21.85,36.66"/><path class="cls-5" d="M199.51,332.72c-2.1.08-4.4.25-5.95,1.65s-1.38,4.47.67,4.8c1.85.3,4.26-1.63,5.39-.22.66.83.08,2-.42,3a17.64,17.64,0,0,0-1.61,12c-.76.71-2,0-2.62-.76a38.5,38.5,0,0,1-7.64-12.55,7.64,7.64,0,0,1-2.81,2.72c.7-1.73.26-3.63-.17-5.4-1.58-6.5-2.65-14.11,1.89-19.42a16.85,16.85,0,0,1,9.84-5.16,49.13,49.13,0,0,1,11.24-.35c1.6.07,3.57.41,4,1.9-3.51,1.4-7.14,4.15-8.9,7.47-.54,1-2.65,10.35-2.86,10.36"/><path class="cls-5" d="M206.93,317.1l-.38.28c-1.59,1.22-3.08,2.69-5,3.23-2.78.77-5.76-.57-8.49.38-3.06,1.06-5.07,4.71-7.3,6.87a32.28,32.28,0,0,1-13.06,7.64,32.68,32.68,0,0,1-7.66,1.37,13.7,13.7,0,0,1-3.89,0c-1.54-.42-1.49-1.12.15-1.64,5.14-1.65,6.76-8.87,6.37-13.66-.31-3.78-1.61-7.73-.17-11.24,1.1-2.68,3.46-4.06,5.75-5.6,2.52-1.69,5.25-1.23,8.12-2s5.42-3.2,8.46-3.79c3.22-.64,6.43.79,9.65,1.41a19.77,19.77,0,0,0,8.07-.1c2.38-.52,4.69-1.48,7.12-1.45,3.58,0,6.87,2.26,9,5.17,2.95,4.11,4.86,11.15,3.82,16.56.16-.84-2.66-3.88-3.25-4.54a7.67,7.67,0,0,0-4.58-2.9c-4.24-.5-9.27,1.61-12.68,4.08"/><g class="cls-7"><g class="cls-8"><path class="cls-9" d="M421.08,228.6l.15-.13c0,.08,0,.17,0,.26a.69.69,0,0,0-.11-.13"/></g></g><path class="cls-4" d="M701.21,343.15c5.44-7.26,7.75-15.06,10-24.85,1.65-7.29,3-14.66,4.36-22a77.51,77.51,0,0,0,1.71-14c0-4.08,2.24-9.75-1.38-13a3,3,0,0,1,4.51-1.12,1.85,1.85,0,0,0,.7.46,1.24,1.24,0,0,0,1.2-.64,10.41,10.41,0,0,0,1.18-4c.45-2.23,1.22-5.85,2.87-7.46a14.92,14.92,0,0,1,4.85-2.79,1.55,1.55,0,0,1,1-.18,1.53,1.53,0,0,1,.69.52,69.47,69.47,0,0,1,5.4,6.15c-2.39,2-2.78,5-4.13,7.75-1.78,3.55-4,6.37-4.21,10.52-.39,6.45-.27,12.92-.74,19.38-.92,12.61-2.62,25.15-4.25,37.68-1.1,8.31-2.22,16.81-5.52,24.58s-8,12.28-14.24,17.72a14,14,0,0,1-4.76,3.11c-2.77.88-5.83-.05-8.25-1.66A16.28,16.28,0,0,1,687,359c1.91-3.65,5.14-6.39,8.17-9.17a49.21,49.21,0,0,0,6.08-6.65"/><path class="cls-4" d="M658.56,618l.61,37.25c-.25,10.34.68,20.64,1.31,30.94.58,9.57-1.34,19.43,3.2,28.3,1.42,2.78,4.45,4.72,6.75,1.51,1.78-2.48,1-6.76,1.4-9.64,3.3-21.59,9.43-42.65,12.5-64.29,3.2-22.66-5.56-22.06-25.77-24.07"/><polygon class="cls-5" points="660.67 708.12 658.28 714.34 670.06 724.71 680.86 725.15 684.35 719.46 669.83 706.83 660.67 708.12"/><path class="cls-4" d="M632.17,618.36,625.37,655c-2.35,16.38-7.7,32.34-10.06,48.73-.54,3.77-.27,7.89-1.84,11.44s-4.56,3.62-7.22,1.26c-3.56-3.16-1.92-8.81-1.85-13.13.43-28.75-1.83-57.1-2.37-85.91a1.24,1.24,0,0,1,.3-1,1.2,1.2,0,0,1,.88-.17c2.8.19,28.81,3,29,2.19"/><polygon class="cls-5" points="604.31 709.65 600.58 715.16 609.72 727.93 620.13 730.8 624.82 726.04 613.52 710.46 604.31 709.65"/><polygon class="cls-5" points="696.95 641.7 691.87 588.45 689.42 553.84 681.18 525.58 636.68 518.68 581.67 528.11 579.03 538.79 589.61 637.73 642.67 641.7 641.96 580.13 650.14 618.29 649.79 641.7 696.95 641.7"/><path class="cls-10" d="M593.35,421.53c-.08,1.8-.12,3.6-.16,5.39-.64,36.53,1.37,73.53,1.6,110.36a409.65,409.65,0,0,1,57-4.87c4.42-.07,24.51,3,27.31.4,3.79-3.58-.38-2.91-.1-7.57.36-6-2.54-11-1.45-18.13,1.29-8.41,3.85-16.72,5.33-25.13a366.81,366.81,0,0,0,5.31-51c.52-15.16,0-30.89-6.56-44.6-16.08-33.79-67.94-33.18-82.16,2.1-4.22,10.45-5.68,21.77-6.15,33.06"/><path class="cls-11" d="M651.86,374.13,637.78,399.8q1.1,38.88,2.21,77.78.51,17.93,1,35.85c.12,4.15.22,8.3.36,12.44.06,1.87-.46,5,.61,6.52,2.3,3.3,10.73,2.27,14.41,2.56,5.73.45,11.55.92,17,2.9,3.59,1.32,7,3.3,10.79,3.83a3.21,3.21,0,0,0,2.48-.4,3.58,3.58,0,0,0,.94-2.64c1.32-17.8,1.35-36.15,2.34-54.14.8-14.72,2.87-30.28,1.59-45,0-.25-.05-.49-.09-.73-1.31-7.1,0-30.52,0-30.52,0-1,3.42-3.54,4.07-4.21l10-10.38c6.69-6.91,19.59-15.44,14.41-26.6a13.94,13.94,0,0,0-2.62-3.63c-7.57-8.12-17.25-12.67-22.68-22.65-9.48,4.68-17.22,13.92-27.31,17.77A27.29,27.29,0,0,1,651,359.88c-3.23-.8-10.19-3.32-8.44,3.08,1,3.66,6.84,8.23,9.31,11.17"/><path class="cls-11" d="M621.22,376.54l14.09,25.67c-.3,0-1.79,62.92-1.91,67.16L632,517.82c-.12,4.49.48,9.75-.4,14.16-1.22,6.16-7.71,4.95-13.24,5.45-12.08,1.09-24.81,3.15-36.93,2.54-3.5-.18,1.1-73.14,1.1-80,0-24.49-5.08-51.66,7.36-73.87,3.62-6.46,10-16.82,17.05-20,6.56-3,16-3.48,23.08-5.15l.37,4.62Z"/><path class="cls-5" d="M651.79,314.38a28.27,28.27,0,0,1,3.48,12.83c.06,1.19.14,2.56,1.1,3.26s.12,2.4.9,1.39,3.44-4.49,3.56-5.76a46.85,46.85,0,0,0,0-8.94c-.25-2.58-.78-5.28-2.47-7.25a14.75,14.75,0,0,0-3.66-2.78,18.75,18.75,0,0,0-6.07-2.73c-3.78-.7-6.1.66-2.76,3.29a23,23,0,0,1,5.93,6.69"/><path class="cls-4" d="M628.17,365.07c0,1.83-.35,3.73,1.26,5.15a5.57,5.57,0,0,0,2.85,1.12,17.7,17.7,0,0,0,7.92-.57,7.12,7.12,0,0,0,2.89-1.52,3.62,3.62,0,0,0,1-2.93c.06-1.37.34-2.78.52-4.17.39-3.06.57-6.15.66-9.23,4.53-.77,9.85-2.24,11.4-7a15.46,15.46,0,0,0,.52-4.71q.07-9.87.14-19.73a18.9,18.9,0,0,0-.75-6.72c-1.37-3.7-4.84-5.91-8.25-7.3-8.68-3.54-18.81-3.4-26.83,1.64a14.6,14.6,0,0,0-5.37,5.41c-1.9,3.61-1.66,8.07-1.37,12.23q.42,5.78.82,11.54c.31,4.43,1,9.52,4.41,11.86,1.83,1.24,4.18,1.46,5.75,3.07,2.75,2.8,1.44,7,2.25,10.38a6.53,6.53,0,0,1,.16,1.46"/><path class="cls-5" d="M658.8,338.61c-.07-1.22-.6-4.8-2.44-2.55a3.68,3.68,0,0,0-.62,2.2,8.55,8.55,0,0,1-.24,2.32,4.1,4.1,0,0,1-4.1,2.43,3.93,3.93,0,0,1-1.93-.46,6,6,0,0,1-1.46-1.34c-1.06-1.23-2.13-2.45-3.2-3.68-1.84-2.11-5.48-1.2-8-.87a15.82,15.82,0,0,0-8,3.11l-.69.59a9.1,9.1,0,0,1-1.78,1.28c-2.21,1.07-4.94-.05-6.48-2.06-.71-.91-1.37-2.1-2.47-2.25a2.25,2.25,0,0,0-2.14,1.3,6.44,6.44,0,0,0-.62,2.7,19.78,19.78,0,0,0,1.73,9.9c3.19,6.54,9.36,7.34,15.56,7.19l7.35-.17c4.49-.11,9.22-.29,13-2.9,3.33-2.3,5.31-6.2,6.12-10.3a25.28,25.28,0,0,0,.41-6.44m-16.39,9.25a8.57,8.57,0,0,1-7.59.88c-1.12-.33-.65-2.21.47-1.87a6.91,6.91,0,0,0,6.2-.68c1-.67,1.9,1,.92,1.67"/><path class="cls-5" d="M659.74,303a36.17,36.17,0,0,0,1-4.85,9.74,9.74,0,0,1-4.76.41c0-1,0-1.9,0-2.84,0-.79-10.64-1.34-11.51-1.41-8.09-.66-15.49-1.29-22.8,3-6.25,3.71-10.26,9.25-11.22,16.46a33.77,33.77,0,0,0,5.32,21.6c0-1.84-1.07-6.16-.64-7.9a15.45,15.45,0,0,1,1.7-5,20.56,20.56,0,0,1,7.21-7.58,40,40,0,0,1,15.76-5.31c5-.7,11.2-1.35,16.18,0,2.4.65,2.79,1.25,4.25-1.17a42,42,0,0,0,2.08-5.41l-2.52,0"/><path class="cls-4" d="M561.76,374.7a11.24,11.24,0,0,0,4.22-12q-3.27-12.3-6.52-24.6c-1.22-4.61-3.82-10.18-3.48-14.86.6-8.28,4.24-17.44,6.55-25.37,1.18-4,2-9.79,4.35-13.24.45-.65,6.14-5.16,6-5.35l-.67-1.7-1.65.72-1.16-.49,4.11-3.48-4-4.55-6.87,1.36c-1.21,4.37-1.36,9.15-3.57,13.16-.93,1.7-2.12,3.23-3.19,4.84-1.83,2.77-3.29,5.77-4.87,8.69s-3.58,5.37-5,8.17c-3.26,6.26-6.48,12.55-9.72,18.82L545.16,368a10.59,10.59,0,0,0,16.6,6.66"/><path class="cls-11" d="M610.2,375.61c1.68-5.29,2.27-10.82.47-16-14.09-.77-40.52-15.28-51.15-8.52l-16.86,10.74a2.67,2.67,0,0,0-1,1,2.6,2.6,0,0,0,0,1.7l-1.49,1.05a35.51,35.51,0,0,1,2.6,3.27c1.3,4.65,3.07,9.18,6.36,12.59.19.2.4.39.6.59a121.86,121.86,0,0,0,6.82,14.19c7.22,12,19.07,20.52,26.06,32.68.09.16,22.13-40.9,24.12-44.8a56.81,56.81,0,0,0,3.55-8.46"/><path class="cls-12" d="M565.12,469.26l-.12-.13c-1.82-1.92-4-.48-6-1s-2.55-3.82-4.61-3.11c-.87.3-2.41,1.31-4.07,1.86a16.31,16.31,0,0,1-8.64-.17,296.57,296.57,0,0,0-33.85-7.38,3.77,3.77,0,0,1-1.84-.58c-1-.75-1.05-1.89-1.25-3a82.66,82.66,0,0,0-4-15.31c-1.72-4.44-3.79-8.68-7.33-11.92s-8.33-5-12.91-3.74c-3.43.93-6.34,3.17-7.19,6.66-2.13,8.67,5.62,15.56,10.17,21.9,4.31,6,8,11.09,12.53,16.61a5.93,5.93,0,0,0,1.9,1.73,6.23,6.23,0,0,0,2.67.5c11.55.35,22.83.4,34,3.23,3.08.78,5.94.25,8.83,1.37,1.84.71,2.73,2.6,4.41,3.56a15.42,15.42,0,0,0,5.58,2.17c5.21.57,12.48-5.11,12.45-10.51a4.23,4.23,0,0,0-.79-2.69"/><path class="cls-5" d="M481.07,451.92c4.39,6.59,8.95,13.07,13.8,19.35a9.83,9.83,0,0,0,3.21,3.05,9.5,9.5,0,0,0,3.08.78,196.79,196.79,0,0,0,26.46,1.9,1.54,1.54,0,0,0,1-.22,1.45,1.45,0,0,0,.43-.69c1-2.55,6.57-12.44,5.18-14.58-1.54-2.38-7.87-1-10.21-1.23q-6.21-.55-12.37-1.58a6.79,6.79,0,0,1-4-1.63,7.2,7.2,0,0,1-1.47-3.83c-1.49-8.05-4.46-15.85-6.6-23.76C498.07,424,497,418.23,495,412.91c-3.93-10.45-4.58-14.91-10.37-20.59-5.54-5.45-14.17-8.49-21.1-3.69-7.19,5-8.26,14.86-6.45,22.69.75,3.24,2.5,6.14,4.22,9,6.44,10.62,12.9,21.27,19.78,31.62"/><path class="cls-12" d="M452,626.3l-17.45,32.39c-7.17,14.7-17,28.09-24.18,42.78-1.65,3.38-2.64,7.34-5.19,10.21s-5.38,2-7.17-1c-2.4-4,.85-8.86,2.22-12.9,9.1-26.91,15.53-54.25,23.72-81.5a1.3,1.3,0,0,1,.6-.9,1.27,1.27,0,0,1,.89.11c2.57,1,26.19,11.51,26.56,10.81"/><polygon class="cls-5" points="398.27 703.72 393.1 707.77 397.83 722.54 406.76 728.38 412.61 725.32 406.69 707.26 398.27 703.72"/><path class="cls-13" d="M461.19,616.35c7.1-15.1,13.88-30.22,18.68-46.24a230.84,230.84,0,0,0,6-25.44c1.43-7.92-.93-15.32-2.52-23.24a5,5,0,0,0-4.12-4.84A184,184,0,0,0,432.65,507a5.86,5.86,0,0,0-3.53.49c-1.3.81-1.77,2.44-2.13,3.92-3,12.39-8.4,26.46-8.54,39.14-.07,6.71.63,13.67.79,20.43q.4,18,.83,36l-22.43,87.53,15.61,12.28,32.42-60.55c5.39-10.07,10.64-20,15.52-29.89"/><path class="cls-12" d="M498.64,616.15l-4.47,36.52c-1.32,16.3-5.63,32.36-6.95,48.65-.31,3.75.21,7.8-1.12,11.4s-4.27,3.84-7,1.67c-3.71-2.89-2.43-8.56-2.63-12.82-1.32-28.37-5.27-56.18-7.56-84.54a1.29,1.29,0,0,1,.23-1.06,1.27,1.27,0,0,1,.86-.22c2.77,0,28.58,1.19,28.68.4"/><polygon class="cls-5" points="476.74 707.83 473.39 713.49 483.18 725.52 493.62 727.72 497.95 722.74 485.87 708.07 476.74 707.83"/><path class="cls-13" d="M503.53,603.55c2-24.12,2.26-47.87-2.52-72.73-.64-3.32-1.38-6.7-3.21-9.53-5-7.74-15.94-8.59-25.09-7.44a110,110,0,0,0-24.51,6c-13.83,5.14-8.76,24.43-8.65,36.59l22.28,53.35,11.6,94.88,18.38.57q4.06-34.1,8.15-68.2c1.36-11.33,2.65-22.45,3.57-33.49"/><path class="cls-5" d="M495.16,451.87q-1.32-14.39-1.94-28.8c-.36-8.34-.61-17-4.23-24.49-9.1-18.92-33-21.31-48.95-10.24-14,9.7-18.34,27.25-20.1,43.24a457.51,457.51,0,0,0-2.78,50.61c0,7.95,2.14,18,.45,25.69-.73,3.32-5.54,7.91-4.52,11.27,2.57,8.49,33.18,13,40.68,14.1a125.65,125.65,0,0,0,40.59-.62c16.6-3,11.39-10.06,8.69-24.38-3.53-18.65-6.16-37.48-7.89-56.38"/><path class="cls-12" d="M451.39,383.35c-.08,1.88.24,3.58,1.69,4.79a8.25,8.25,0,0,0,4.27,1.49,9.93,9.93,0,0,0,4.88-.22c3.88-1.49,4.56-10.59,5.23-14.06,3.87-.05,8.5-.56,10.45-4.38a13.64,13.64,0,0,0,1.08-3.92q1.42-8.35,2.86-16.7a16.54,16.54,0,0,0,.3-5.81c-.62-3.32-3.19-5.67-5.83-7.31-6.72-4.19-15.15-5.44-22.51-2.26a12.48,12.48,0,0,0-5.21,3.85c-2.08,2.81-2.5,6.62-2.84,10.19l-.92,9.9c-.36,3.79-.51,8.2,2,10.65,1.34,1.3,3.27,1.81,4.35,3.39,1.87,2.72.32,6.87.18,10.4"/><path class="cls-5" d="M476.32,343.3a6,6,0,0,1,.3,1c.35,1.82-.34,3.72,0,5.55.53,2.89,3.52,5,3.59,7.95.06,2.41-1.87,4.41-2.35,6.77-.52,2.58.79,5.28.17,7.81a17.17,17.17,0,0,1-4,6.71c.49-.49,4.19.24,5.25-.21,1.61-.69,1.86-1.24,2.52-2.72s.54-3,1.45-4.5c1.11-1.81,3-3,3.94-4.95,1.22-2.68.15-5.86.69-8.76.81-4.4,5.23-8,4.45-12.41-.46-2.59-2.63-4.51-3.65-6.92-.78-1.83-.87-3.87-1.32-5.81s-1.4-4-3.21-4.79a30.69,30.69,0,0,0-3.2-.85c-1.81-.62-3.17-2.12-4.88-3-2.44-1.23-7.34.71-9.15,2.67s-1.31,3.88-.06,6c2.07,3.54,7.89,6.5,9.46,10.42"/><path class="cls-5" d="M441.56,325.29c-1.7.91-3.71,1.45-5.3,2.57-3.11,2.17-4.22,6.21-4.86,9.94-.57,3.33-2.46,6.09-2.6,9.63a8.63,8.63,0,0,0,2.27,6.53c2.12,2.06,5.8,2.88,6.47,5.76.72,3.13-2.89,6.43-1.4,9.27.83,1.57,2.82,2.07,4.15,3.24,1.49,1.3,2.06,3.32,2.82,5.15s2,3.73,4,4.05c.51-3,.93-5.31.05-8.22-.51-1.69-2.27-4.93-.35-6.41,1.26-1.27,3.82-1.38,4.14-3.14a4.13,4.13,0,0,0-.68-2.39,10.3,10.3,0,0,1,.58-9.39A13.41,13.41,0,0,1,458.4,346c3.64-1.16,3.21-2.07,4.67-5.18,1.34-2.87,3.14-3.33,6-4,2.57-.63,3.44-1.13,4.66-3.27.89-1.57,2-3.44,1.3-5.43a11.27,11.27,0,0,0-2.92-4c-2.45-2.49-5.22-5.14-8.71-5.39-1.93-.14-3.86.5-5.8.34-1.29-.12-2.52-.58-3.79-.81a10.36,10.36,0,0,0-6.52,1c-2,1.06-2.12,2.43-3.38,4.15a6.55,6.55,0,0,1-2.35,1.92"/><path class="cls-5" d="M451.05,314.16c.63-2,.8-4.76-1.08-5.74-1-.54-2.3-.3-3.4-.69-2.33-.83-2.73-3.86-3.69-6.15a1.8,1.8,0,0,0-.64-.89,3.08,3.08,0,0,0-1.55-.19c-2.44-.05-3.92-2.67-6.05-3.85a5.72,5.72,0,0,0-7.65,2.52c-.51,1.13-.63,2.4-1.13,3.53-2,4.61-9.3,5.64-10.2,10.57-.6,3.34,2.22,7,.5,10-1.1,1.86-3.85,2.85-3.86,5A3,3,0,0,0,415,331a6,6,0,0,0,3.93-1.15c1.86-1.21,3.37-2.88,5.16-4.18s4.07-2.23,6.21-1.65,3.74,2.48,5.88,2.43c1.71,0,3.17-1.35,4.88-1.54s3.11.66,4.68,1,3.64-.22,3.91-1.81a3.94,3.94,0,0,1,.18-1.14c.49-1,2.23-.67,2.71-1.64-.64-1.4-1.88-1.11-2.23-2.86-.28-1.36.35-3,.75-4.24"/><path class="cls-4" d="M432.07,508.09s0-.1,0-.15c.64-2.33-1.51-3.31-2-5.17s1.76-3.81.22-5.09c-.65-.53-2.17-1.25-3.39-2.28a15.05,15.05,0,0,1-4-6.84,272,272,0,0,0-10.4-29.95,3.36,3.36,0,0,1-.42-1.71c.12-1.11,1-1.72,1.75-2.41a76.16,76.16,0,0,0,10.06-10.41c2.64-3.47,5-7.11,5.8-11.42s-.08-8.88-3.24-11.86c-2.36-2.24-5.5-3.44-8.64-2.44-7.78,2.48-9.46,11.82-12.24,18.4-2.63,6.22-4.84,11.53-7,17.71a5.53,5.53,0,0,0-.44,2.31,5.82,5.82,0,0,0,.88,2.32c5.24,9.19,10.59,18,13.72,28.11.87,2.78,2.65,4.76,3.15,7.54.32,1.78-.73,3.38-.68,5.15a14,14,0,0,0,1,5.39c2,4.35,9.94,7.31,14.15,4.71a3.89,3.89,0,0,0,1.72-1.91"/><path class="cls-5" d="M405.49,434.19c-3.06,6.58-5.94,13.24-8.52,20a9.23,9.23,0,0,0-.86,4,9.1,9.1,0,0,0,.86,2.77,180.36,180.36,0,0,0,11.16,21.57,1.49,1.49,0,0,0,.63.66,1.47,1.47,0,0,0,.75,0c2.47-.43,12.84-.81,13.85-2.91,1.12-2.34-2.95-6.63-3.91-8.56-1.69-3.41-3.25-6.89-4.67-10.41a6.23,6.23,0,0,1-.65-3.92,6.74,6.74,0,0,1,2.29-3c5.58-5,10.25-11,15.41-16.49,3.57-3.77,7.56-7.37,10.76-11.47,6.29-8.05,9.46-10.69,11.13-17.92,1.6-6.93-.14-15.11-7.19-18.24-7.31-3.24-15.55.65-20.8,5.8a28.63,28.63,0,0,0-5,7.58c-5.23,10.1-10.46,20.22-15.25,30.53"/><path class="cls-14" d="M748,474.36a57,57,0,0,0-59.79-81.73c-.63.1-1.27.21-1.9.33-13.52,2.56-26.43,10.18-34.62,21.32-7.57,10.3-10.45,23.81-18.6,33.42-7.79,9.18-20.68,11.74-32.56,13.74l-54.82,9.23c-39,6.56-78.4,13.16-118,11.76-2.59-.09-5.29-.24-7.57-1.48a17.44,17.44,0,0,1-4.77-4.42c-16.25-19.36-33.78-35.36-61.23-32-.64.08-1.28.16-1.92.26a57,57,0,0,0-32.2,96A22,22,0,0,1,324,566a57,57,0,0,0,94.42,62.38A57.65,57.65,0,0,0,428.56,611c2.24-6.11,1.53-14.24,5.86-19.11,5-5.67,15.84-9.22,22.75-11.81,16.91-6.34,34.93-9,52.71-11.63l111-16.15c6.79-1,13.69-2,20.49-1,15.21,2.08,16.44,12.45,24.56,22.92a57,57,0,1,0,86-74.58,22,22,0,0,1-3.91-25.2"/><g class="cls-15"><g class="cls-16"><path class="cls-17" d="M748,474.36a56.73,56.73,0,0,0,5.29-34.14,57.39,57.39,0,0,0-31-42.32c-6.4-3.19-16.69-8.91-17.94.91-.57,4.45,1.8,10.12,2.34,14.53a68,68,0,0,1-.38,20.14c-1.84,10.19-6.34,19.68-11,28.91C684.9,482.88,673.24,503,657.86,520s-34.79,31.08-57,37.15c12.79-3.58,47.31-10.68,56.54,3.31,2.95,4.48,5.16,9.41,8.46,13.66a57,57,0,1,0,86-74.58,22,22,0,0,1-3.91-25.2"/></g></g><path class="cls-14" d="M356.14,461.16a7.86,7.86,0,1,1-9-6.57,7.86,7.86,0,0,1,9,6.57"/><path class="cls-14" d="M334.82,476.31a4.29,4.29,0,1,1-4.89-3.58,4.3,4.3,0,0,1,4.89,3.58"/><path class="cls-14" d="M355.08,485.06a6,6,0,1,1-6.84-5,6,6,0,0,1,6.84,5"/><path class="cls-18" d="M721.47,254.72c0-44.72-35.1-112.94-78.4-112.94S564.68,210,564.68,254.72c0,.69,0,1.36,0,2,.67,27.42,29.94,43.2,52.71,29.09a48.56,48.56,0,0,1,51.31,0c22.76,14.11,52-1.67,52.71-29.09,0-.67,0-1.34,0-2"/><path class="cls-18" d="M574.22,175.34c0,19.63-13.28,35.54-29.66,35.54S514.91,195,514.91,175.34s13.28-35.53,29.65-35.53,29.66,15.91,29.66,35.53"/><path class="cls-18" d="M636,103.32c0,19.62-13.28,35.54-29.66,35.54s-29.65-15.92-29.65-35.54,13.28-35.54,29.65-35.54S636,83.69,636,103.32"/><path class="cls-18" d="M713,175.34c0,19.63,13.28,35.54,29.66,35.54s29.65-15.91,29.65-35.54S759,139.81,742.66,139.81,713,155.72,713,175.34"/><path class="cls-18" d="M652.11,103.32c0,19.62,13.28,35.54,29.66,35.54s29.65-15.92,29.65-35.54-13.28-35.54-29.65-35.54-29.66,15.91-29.66,35.54"/><g class="cls-19"><g class="cls-20"><path class="cls-17" d="M682.15,162.57h0s13,117.55-108.07,117.56a34.24,34.24,0,0,0,43.34,5.71,48.56,48.56,0,0,1,51.31,0c22.76,14.12,52-1.67,52.71-29.09,0-.67,0-1.34,0-2,0-30-15.81-69.47-39.31-92.15"/></g></g><path class="cls-4" d="M960,416.63a3.07,3.07,0,0,0-.87-.29c-2.75-.35-4.4,1.12-7.13,1.54-1.22.19-3.33-2.18-4.39.17-.39.87-1,3.13-1.86,5-1.18,2.71-4.33,5.42-7.22,7.12-11.37,6.67-24.23,10.06-37.06,13a4.7,4.7,0,0,1-2.23.14c-1.3-.33-2-1.65-2.68-2.84a101.45,101.45,0,0,0-10.28-15.59c-3.48-4.34-7.44-8.48-12.45-10.89s-11.26-2.84-16,.09a13.19,13.19,0,0,0-6.11,10.35c-.53,10.32,13.05,16.88,20.16,22.16a178.47,178.47,0,0,0,21.15,13.53,7.77,7.77,0,0,0,2.88,1.09,8,8,0,0,0,3.22-.61,391.75,391.75,0,0,0,39.28-16.38c3.54-1.65,5.77-5,9.06-6.47,2.1-1,4.44-.2,6.62-.67a21.4,21.4,0,0,0,6.71-2.85c3.62-2.42,3.82-6.9,4.38-10.81a4.69,4.69,0,0,0-.07-2.5,6.74,6.74,0,0,0-2.91-3,12.86,12.86,0,0,0-2.22-1.27"/><path class="cls-13" d="M870.86,442.73l20.37-14.59c-.44.32-20.19-32.15-21.43-34.05-4.74-7.22-9.7-14.67-17-19.25-15.64-9.79-35.39,4.34-29.38,22.45,6.52,19.67,21.1,38.49,38.14,50.19a2,2,0,0,0,2.89-.14l6.43-4.61"/><polygon class="cls-4" points="859.34 697.5 859.06 718.08 870.94 718.24 871.25 695.43 859.34 697.5"/><path class="cls-5" d="M869.88,715l-10.33,3.51-3.08,3.4L857,730l27.93,2.23a6.45,6.45,0,0,0-3.11-9.7l-1.3-.45Z"/><polygon class="cls-4" points="773.73 677.78 765.86 696.71 776.79 701.49 785.51 680.5 773.73 677.78"/><path class="cls-5" d="M776.59,701.84a9.41,9.41,0,0,0-1.38-1.27c-1.32-1-11.91-6.74-12.82-4.14a3,3,0,0,0,0,1.33,101.49,101.49,0,0,0,5.07,21.91c1.07,3,2.7,6.37,5.74,7.13a8.83,8.83,0,0,0,4.08-.23,40.84,40.84,0,0,0,5.82-1.81,3.25,3.25,0,0,0,1.79-1.27c.72-1.34-.54-2.91-1.85-3.63s-2.9-1.24-3.54-2.61a5.42,5.42,0,0,1-.37-2c-.26-5.06.57-9.92-2.5-13.41"/><path class="cls-5" d="M848.37,602.15c-3.9,18.29-15,31.43-26.94,44.88a577.6,577.6,0,0,0-38.37,48.35l-15.47-6.62c4.32-25.71,16.2-49.29,25.4-73.6,6.4-16.9,11.58-34.76,11.86-53,.14-9.08-2-17.39-3.15-26.22-1.42-10.94-1.5-22.15-2.79-33.14-.43-3.68-.67-8,2.09-10.44a9.32,9.32,0,0,1,4.43-1.83c58.63-11.65,50.35,76.85,42.94,111.64"/><path class="cls-5" d="M800.6,506.22a128.08,128.08,0,0,1,3.31-30c16.68-.92,35.53,1,52,4.41,16.12,3.36,26.17,7,26.29,24.91.21,33,12.79,61.14,18.22,92.87,3.15,18.45-2.3,34.94-8.34,52a589.82,589.82,0,0,0-17.62,59.66l-16.76-.1c-5.52-25.46-3.24-51.91-3.71-78-.33-18.12-2.13-36.67-8.62-53.67-7.14-18.69-17.41-11.25-29.2-22.09-11.46-10.54-15.55-30.91-15.6-50.08"/><path class="cls-13" d="M819.54,379.16a44.87,44.87,0,0,0-5.06,5q-2.15,2.36-4.3,4.7c-5,5.44-7.41,13.48-9.54,20.42-11.2,36.53-15.23,86.65-8,124.82,27.58,2.45,59.5-4.69,87-8.55,2.68-.37,5.71-1,7.1-3.37a9.62,9.62,0,0,0,.87-4.89c0-24.23-5-50.27-9.68-74.16a265.45,265.45,0,0,0-7.52-29.85c-3.31-10.35-7-21.52-14.76-29.35-8.27-8.37-24.1-12.51-34.46-6a18.21,18.21,0,0,0-1.7,1.22"/><path class="cls-4" d="M822.55,384.25l-1.5-9.89a17.22,17.22,0,0,1-1.89-1.08c-11.5-7.53-30.8-48-.14-57.06,27.84-8.23,26.39,31.08,21,47.47a24.65,24.65,0,0,1-4,7.75c-1.26,1.57-1.55,1.27-1.36,3.09s1.88,3.76,2.27,5.62a6.82,6.82,0,0,1-3.62,8.21,8.42,8.42,0,0,1-5.57,1.07,7.09,7.09,0,0,1-5.14-5.18"/><path class="cls-5" d="M846.52,348.84a62.79,62.79,0,0,1-7.08,14.8,108.58,108.58,0,0,0-3.38-28.72,2.85,2.85,0,0,1,0-2.15,2.51,2.51,0,0,1,1.73-.95c11.72-2.6,11.69,7.9,8.72,17"/><path class="cls-5" d="M815.72,363.41c-1.88,2.72-6,2-8.9.49-11.92-6.14-18.93-20.94-16.29-34.36,2.21-11.23,16-19.64,18.79-5.73,1,4.93-1.94,11.76-1.27,17.23,1,7.82,4.51,15.29,7.67,22.37"/><path class="cls-5" d="M846.39,305.91l4.13,1.69c3,1.19,5.11,1.59,8.16-.19.87-.51,6.73-6.19,5.32-7.37,9.34,7.82,1.66,19.23-1.84,27.31-2.36,5.44-2.85,13.13-8.16,16.69-5.83,3.91-9.84-1-15.13-3.26-4.68-1.95-9.73-3-14.48-4.75-7.9-2.89-19.64-8-17-18.73,3-12.57,15.45-15.7,26.6-14.74a40.63,40.63,0,0,1,12.42,3.35"/><path class="cls-21" d="M775.35,477s89,151.4,210.54,6.2a13.84,13.84,0,0,0-.21-17.38C860.73,323.53,775.35,477,775.35,477"/><path class="cls-21" d="M732.77,427.53c-2.58-4.29.71-8.56,6.5-7.76,36,5,70.43,29.94,74.3,56.78-2.91,24.6-35.73,51.84-70.2,58.44-6,1.15-9.74-3.32-6.81-7.76,14.19-21.47,21.2-58.1-3.79-99.7"/><path class="cls-21" d="M848.74,438.74s-9-33.35-23.58-51.95c-2.56-3.24.62-8,4.81-8.11,15.6-.55,49.15,3.75,83.38,43.2Z"/><path class="cls-21" d="M845.45,522s-3.13,23.77-11.83,38c-1.51,2.49,1.24,5.4,4.28,5.07,11.3-1.24,35.06-7.65,55.81-38.22Z"/><g class="cls-19"><g class="cls-22"><path class="cls-17" d="M800.88,503.24s43.27,58.52,124.49,26.22c0,0-70.09,13.24-124.49-26.22"/></g></g><g class="cls-23"><g class="cls-24"><path class="cls-2" d="M985.89,483.2a13.84,13.84,0,0,0-.21-17.38c-17.79-20.26-34.78-34.52-50.84-44.08-11.69,26.17-19.85,64.63.95,106.93,15.92-9.94,32.67-24.66,50.1-45.47"/></g></g><path class="cls-5" d="M934.34,466.13a9,9,0,1,1,9.09,8.88,9,9,0,0,1-9.09-8.88"/><path class="cls-4" d="M812,518.83a3,3,0,0,0,.56-.73c1.23-2.48.38-4.52.88-7.24.23-1.22,3.16-2.43,1.29-4.2-.69-.65-2.61-2-4.1-3.39-2.17-2-3.7-5.88-4.36-9.17-1.23-6.22,2.43-24.31-5.15-27.37-17.8-7.2-5.28,29.86-5,33.34.22,2.3-1.26,4.26-1.54,6.47a21.75,21.75,0,0,0,.48,7.28c1.1,4.21,5.27,5.87,8.78,7.69a4.66,4.66,0,0,0,2.38.75c1.5,0,2.64-.91,3.81-1.75a12.92,12.92,0,0,0,1.93-1.68"/><path class="cls-13" d="M810.73,385.54c-.78.82-1.65,2.09-2.9,3.51C801.28,396.52,797.2,408.73,794,418a141.26,141.26,0,0,0-6.91,61.66,2.27,2.27,0,0,0,3,2.48l14.11-1a6,6,0,0,0,2.92-.72c1.65-1.1,1.76-3.43,1.74-5.41a151.53,151.53,0,0,1,4.6-38.52c1.49-5.94,5.55-13,6-18.95.37-5.4-2-11.58-1.62-17.49.2-3.55.51-8.82-1.61-11.92-2.81-4.11-3.93-4.23-5.46-2.6"/><path class="cls-5" d="M189.9,509.1c0-5.69-.08-11.39,0-17.08.09-6.82,6-6.3,11-6.3h21.53c4.87,0,13-1.46,13.47,5.52.4,5.9,0,11.95,0,17.86,0,4.06,6.32,4.07,6.32,0,0-5.94.26-11.93,0-17.86a12,12,0,0,0-9.33-11.57,31.71,31.71,0,0,0-6.61-.27H202.33c-7.16,0-15.47-.33-18.16,8.17-1.08,3.41-.59,7.51-.59,11v10.5c0,4.06,6.32,4.07,6.32,0"/><path class="cls-21" d="M263.88,631.58H165.25c-10.21,0-18.91-5.12-20.53-12.09l-12.45-53.77H296.86L284.4,619.49c-1.61,7-10.31,12.09-20.52,12.09"/><path class="cls-21" d="M263.88,505.52H165.25c-10.21,0-18.91,5-20.53,11.91l-12.45,53H296.86l-12.46-53c-1.61-6.87-10.31-11.91-20.52-11.91"/><path class="cls-5" d="M307.55,578.5h-186a10.43,10.43,0,0,1,0-20.85h186a10.43,10.43,0,1,1,0,20.85"/><path class="cls-2" d="M177.2,549.12h0a5.24,5.24,0,0,1-5.23-5.24v-18a5.24,5.24,0,1,1,10.47,0v18a5.25,5.25,0,0,1-5.24,5.24"/><path class="cls-2" d="M214.78,549.12h0a5.25,5.25,0,0,1-5.24-5.24v-18a5.24,5.24,0,1,1,10.47,0v18a5.24,5.24,0,0,1-5.23,5.24"/><path class="cls-2" d="M251.92,549.12h0a5.24,5.24,0,0,1-5.23-5.24v-18a5.24,5.24,0,1,1,10.47,0v18a5.25,5.25,0,0,1-5.24,5.24"/><path class="cls-2" d="M167.23,590.46h0a7.17,7.17,0,0,1-7.17-7.16v-11h14.33v11a7.17,7.17,0,0,1-7.16,7.16"/><path class="cls-2" d="M261.9,590.46h0a7.16,7.16,0,0,1-7.16-7.16v-11h14.32v11a7.17,7.17,0,0,1-7.16,7.16"/><path class="cls-4" d="M211.72,480.15a2.72,2.72,0,0,0,0-.75c-.34-2.27-1.87-3.25-2.81-5.33-.42-.93,1-3.13-1.1-3.45-.78-.12-2.72-.14-4.38-.37-2.42-.34-5.27-2.24-7.26-4.16a77.35,77.35,0,0,1-7.69-8.32,132.06,132.06,0,0,1-12.72-20.48,35.41,35.41,0,0,0,17.82-31.9,8.3,8.3,0,0,0-.91-3.88,7.2,7.2,0,0,0-2.47-2.28C180,393,174.52,403,169.78,410.8a116.84,116.84,0,0,0-7.88,15.34c-3.09,7.4-.65,13.86,3.64,20.4,4.54,6.93,9.26,13.87,15.19,19.7,2.88,2.83,6.09,4.92,9.29,7.33s1.92,3.65,4.15,6.45c1.25,1.55,2.22,3.38,3.74,4.68,2.72,2.34,6.34,1.51,9.57,1.09a3.78,3.78,0,0,0,2-.61,5.59,5.59,0,0,0,1.77-3,11.18,11.18,0,0,0,.51-2.05"/><path class="cls-6" d="M171.21,415.05l16.11,13c-.35-.28,21.08-23.17,22.31-24.58,4.69-5.36,9.51-11,11.54-17.8,4.31-14.59-11.3-27.16-24.36-18.37-14.19,9.54-25.92,25.3-31.44,41.44a2.14,2.14,0,0,0-.17,1.08,2.21,2.21,0,0,0,.92,1.18l5.09,4.09"/><path class="cls-25" d="M358.71,279.31a169,169,0,0,0-6.77-30.75c-5.67-17.66-14.68-34.24-28.9-45.29-6.56-5.11-14.1-10-19.41-16.44s-7.24-14.7-8.89-22.54c-1.33-6.35-2.91-12.57-7.6-17.7-5.43-5.94-13.61-10.58-21.84-10.87a21.14,21.14,0,0,0-8.73,1.49c-.53.22-1,.45-1.56.71-5,2.54-10.9,9.47-10.34,15.47l0,.08A30.69,30.69,0,0,0,243.52,168c1.15,8.91,4.58,17.79,4,26.83v.08c0,.32-.06.63-.09.94-.2,1.87-.62,3.67-.93,5.49-1,4.24-2.57,8.3-3.86,12.62-9.64,32.29,1.28,67.83,24.78,90.9a85.78,85.78,0,0,0,17.64,13.42,92.9,92.9,0,0,0,19.38,8.31,25.2,25.2,0,0,0-4.78,8.77.59.59,0,0,0,.93.66,22.43,22.43,0,0,1,11.86-6.17c5.3-.94,11.76,0,16.33,3.38,13.25,9.7,13.22,33,12.67,48a.09.09,0,0,0,0,.05,1,1,0,0,0,1.88.59c15.31-31.35,19.75-67.32,15.4-102.59"/><path class="cls-21" d="M299.75,180.63c-3.21-6.13-4.44-13.24-5.93-19.93A33.38,33.38,0,0,0,285,144c-7.05-7-19-10.89-28.47-7.12a20.55,20.55,0,0,0-8.61,6.62,18.88,18.88,0,0,0-2.79,4.9,29.36,29.36,0,0,0-.73,4.76c-4.27,14.27,3.79,27.74,2.86,41.83-.28,4.31-2,8.28-1.2,12.64A16.87,16.87,0,0,0,261,221.11c9.66.9,14.75-6.78,18.3-14.58,3.87-8.49,8.74-14.86,18.58-16.6a25,25,0,0,1,8.63,0,39.54,39.54,0,0,1-6.72-9.28"/><path class="cls-26" d="M304.43,326.58a25.2,25.2,0,0,0-4.78,8.77.59.59,0,0,0,.93.66,22.43,22.43,0,0,1,11.86-6.17,23.58,23.58,0,0,1,7.18-.12h0a111.26,111.26,0,0,1-15.19-3.14"/><path class="cls-5" d="M248.4,164a13.51,13.51,0,0,1-3.78-7.23,13.86,13.86,0,0,1-.1-4.11,13.63,13.63,0,0,0-7.61,2c-5.94,3.67-8.3,10.83-7.17,17.95a18,18,0,0,0,2.81,7.18,10.92,10.92,0,0,1,6.74-11.66,12.56,12.56,0,0,1-3.23,4.36,12.75,12.75,0,0,0,8.23,2A13.52,13.52,0,0,1,248.4,164"/><path class="cls-5" d="M260.83,150.47a3.92,3.92,0,1,1-3,4.66,3.9,3.9,0,0,1,3-4.66"/><path class="cls-18" d="M306.22,189.81a24.32,24.32,0,0,0-8.55,0c-9.76,1.73-14.59,8.05-18.41,16.46-3.53,7.73-8.57,15.35-18.15,14.45a16.73,16.73,0,0,1-14.79-13.35,17.27,17.27,0,0,1,.17-6c-1,4.24-2.57,8.3-3.86,12.62-2.32,7.77-3.44,16,.76,23.48a19.67,19.67,0,0,0,17.5,10.18c9.94-.09,17.5-7.3,20.17-16.48,1.94-6.68,1.15-13.79,4.07-20.2,5.28-11.6,10.12-18.64,20.74-17.11,3.71.53,7,2.32,7.52,2.25-3.4-2.86-7.17-6.26-7.17-6.26"/><g class="cls-19"><g class="cls-27"><path class="cls-17" d="M357.7,321.25c-11.4-22.5-29-37.08-50.95-48.58-13.1-6.86-24.13-16.83-28.7-29.65,4.51,13.83,14.94,25.8,27.73,35.17,23.05,16.86,41,36.38,51,63.16a182.69,182.69,0,0,0,2.7-19,1.94,1.94,0,0,1-1.81-1.11"/></g></g><path class="cls-14" d="M353.4,244.61a126.18,126.18,0,0,0-31.67-42.91c-6.52-5.75-15.88-10.52-24.65-8.49-10.72,2.49-17.9,16.6-20.22,27.08-5.35,24.13,9.86,41.88,29.89,52.38,21.92,11.5,39.55,26.08,50.95,48.58a2,2,0,0,0,3.7-.52s0,0,0-.06a121.1,121.1,0,0,0-8-76.06"/><path class="cls-2" d="M430.86,561.17l-26.49-45.95a8.38,8.38,0,0,1-1.1-3.15,5.83,5.83,0,0,1,1.34-4.81,7,7,0,0,1,4.46-2.51,5.79,5.79,0,0,1,3.81.6,7.9,7.9,0,0,1,2.79,2.81l19.13,34.41,8.13-38.49a9.05,9.05,0,0,1,1.89-3.51,5.58,5.58,0,0,1,3.43-1.68,7.53,7.53,0,0,1,5,1.05,6,6,0,0,1,2.7,4.25,8.66,8.66,0,0,1-.13,3.34l-11.89,51.68a11.29,11.29,0,0,1-1.92,4.23,5.83,5.83,0,0,1-3.8,1.83,6,6,0,0,1-4.38-.78A9.62,9.62,0,0,1,430.86,561.17Z"/><path class="cls-2" d="M497.38,536.34l-27,4a9.76,9.76,0,0,0,5,6.24,13.91,13.91,0,0,0,8.36,1.08q3-.45,8.21-3.83l5.32-3.39a4.83,4.83,0,0,1,3.84,1.17,5.41,5.41,0,0,1,2.14,3.49q.6,4-5.6,8.36a31.28,31.28,0,0,1-13.4,5.41q-10.59,1.59-18.19-4.27t-9.19-16.45A25.29,25.29,0,0,1,460.81,520a22,22,0,0,1,32.46-4.9q7.53,6.27,8.8,14.77Q502.91,535.52,497.38,536.34ZM468.87,532,489,529a11.88,11.88,0,0,0-4.16-6.5,9.3,9.3,0,0,0-7.36-1.63,9.43,9.43,0,0,0-6.47,3.79A11.22,11.22,0,0,0,468.87,532Z"/><path class="cls-2" d="M512.5,547l-4.35-29.09-2.8.41a5.18,5.18,0,0,1-6.35-4.69,5.46,5.46,0,0,1,4.7-6.35l2.8-.42-1.13-7.53a7.51,7.51,0,0,1,1-5.3,6.43,6.43,0,0,1,9.2-1.38,7.52,7.52,0,0,1,2.46,4.79l1.13,7.53,3.68-.55a6.87,6.87,0,0,1,4.54.71,5,5,0,0,1,2.33,3.91,5.12,5.12,0,0,1-1,4.41,6.74,6.74,0,0,1-4.18,2l-3.68.55,4.35,29.09a7.51,7.51,0,0,1-1,5.3,5.86,5.86,0,0,1-4.31,2.66,5.8,5.8,0,0,1-4.89-1.29A7.48,7.48,0,0,1,512.5,547Z"/><path class="cls-2" d="M639.22,528l-5-33.65a7.53,7.53,0,0,1,1-5.29,5.8,5.8,0,0,1,4.3-2.66q5.09-.76,6.48,3.78a11.54,11.54,0,0,1,4.23-4.67,20.8,20.8,0,0,1,7.27-2.34q7.62-1.14,13.12,2.69t6.68,11.73l3.62,24.18a7.51,7.51,0,0,1-1,5.3,6.43,6.43,0,0,1-9.2,1.38,7.47,7.47,0,0,1-2.46-4.79l-3.3-22q-.63-4.21-3.24-6.1a8.23,8.23,0,0,0-6.29-1.35,7.72,7.72,0,0,0-5.64,3.31,9.1,9.1,0,0,0-1.21,6.59l3.29,22a7.56,7.56,0,0,1-1,5.3,6.43,6.43,0,0,1-9.2,1.38A7.47,7.47,0,0,1,639.22,528Z"/><path class="cls-2" d="M589.37,471.13a6.43,6.43,0,0,0-9.2,1.38,7.51,7.51,0,0,0-.95,5.3l1.19,7.94L581.94,496l1.19,8a7.5,7.5,0,0,0,2.47,4.78,6.42,6.42,0,0,0,9.2-1.37,7.51,7.51,0,0,0,1-5.3l-1.19-7.95L593,483.87l-1.19-7.95A7.53,7.53,0,0,0,589.37,471.13Z"/><path class="cls-28" d="M597.11,472c23.94,4.73,36.53,34.25,26.33,55.65-6.14,12.89-20.08,21.75-34.44,21.16-13.83-.57-26.14-10-31.62-22.49a44.3,44.3,0,0,1,1.53-37.89"/><polygon class="cls-2" points="563.66 481.37 561.18 494.02 558.66 488.98 553.03 488.67 563.66 481.37"/><path class="cls-2" d="M575.88,497.75a11.49,11.49,0,0,0,1.54-4.63c.08-3.23-2.12-6.54-5.52-6.8-3.17-.25-5.54,1.67-7.26,4.18-6.11,8.93-6.06,21.57-2.35,31.4q.74,1.92,1.65,3.75a31.6,31.6,0,0,0,14.39,14c12.44,6.22,28.67-.65,31.12-3.77a18.57,18.57,0,0,1,1.81-1.61,36.62,36.62,0,0,0,4.09-4.62c5.6-7.5,6.92-18.05,4.77-27a67.56,67.56,0,0,0-2.14-7s-3.92-8.52-9.61-12.45-9.5,1-9.5,1-3.26,4.44,1.43,8.88,6.35,12.34,6.35,12.34,4.81,19.83-12.13,24.11c-8,2-14.55-2.33-18-9.43a27.54,27.54,0,0,1-2.81-13.56,25.2,25.2,0,0,1,1.32-6.81A18.63,18.63,0,0,1,575.88,497.75Z"/></g></svg>