<svg id="Capa_1" data-name="Capa 1" xmlns="http://www.w3.org/2000/svg" viewBox="0 0 289.84 120.43"><defs><style>.cls-1{fill:#5c2299;}.cls-2{fill:#fe3090;}.cls-3{fill:none;stroke:#fe3090;stroke-linecap:round;stroke-miterlimit:10;stroke-width:3px;stroke-dasharray:5 7;}</style></defs><title>Logo</title><path class="cls-1" d="M29.28,133l-6.76-17.21a2.86,2.86,0,0,1-.22-1.14,2,2,0,0,1,.71-1.59,2.39,2.39,0,0,1,1.67-.64,2.06,2.06,0,0,1,1.28.4,2.84,2.84,0,0,1,.82,1.12l4.82,12.85L36.39,114a3.18,3.18,0,0,1,.83-1.12,2,2,0,0,1,1.27-.4,2.64,2.64,0,0,1,1.67.62,2.1,2.1,0,0,1,.71,1.61,2.86,2.86,0,0,1-.22,1.14L33.89,133a3.94,3.94,0,0,1-.88,1.36,2,2,0,0,1-1.41.43,2.09,2.09,0,0,1-1.47-.49A3.38,3.38,0,0,1,29.28,133Z" transform="translate(-5.35 -14.57)"/><path class="cls-1" d="M56.88,127.89H47.36a3.39,3.39,0,0,0,1.4,2.41,4.84,4.84,0,0,0,2.83.81,8.16,8.16,0,0,0,3-.9l2-.9a1.69,1.69,0,0,1,1.27.61,1.89,1.89,0,0,1,.55,1.31c0,1-.79,1.81-2.36,2.59a10.81,10.81,0,0,1-4.9,1.18,8,8,0,0,1-6.06-2.41,8.54,8.54,0,0,1-2.31-6.15,8.82,8.82,0,0,1,2.28-6.06,7.69,7.69,0,0,1,11.45,0,8.15,8.15,0,0,1,2.27,5.54A1.73,1.73,0,0,1,56.88,127.89Zm-9.61-3h7.1a4.18,4.18,0,0,0-1.09-2.46,3.61,3.61,0,0,0-4.89,0A3.89,3.89,0,0,0,47.27,124.93Z" transform="translate(-5.35 -14.57)"/><path class="cls-1" d="M63.24,132.34V122.08h-1a1.8,1.8,0,0,1-1.94-1.94,1.88,1.88,0,0,1,.55-1.39,1.9,1.9,0,0,1,1.39-.56h1v-2.66a2.6,2.6,0,0,1,.6-1.77,2,2,0,0,1,1.63-.7,2,2,0,0,1,1.62.7,2.6,2.6,0,0,1,.6,1.77v2.66H69a2.37,2.37,0,0,1,1.53.48,2.1,2.1,0,0,1,0,2.93,2.34,2.34,0,0,1-1.54.48h-1.3v10.26a2.64,2.64,0,0,1-.6,1.78,2,2,0,0,1-1.62.69,2.07,2.07,0,0,1-1.63-.69A2.64,2.64,0,0,1,63.24,132.34Z" transform="translate(-5.35 -14.57)"/><path class="cls-1" d="M86.17,127.89H76.65a3.4,3.4,0,0,0,1.41,2.41,4.79,4.79,0,0,0,2.82.81,8.11,8.11,0,0,0,3-.9l2-.9a1.68,1.68,0,0,1,1.27.61,1.89,1.89,0,0,1,.55,1.31c0,1-.78,1.81-2.36,2.59a10.81,10.81,0,0,1-4.9,1.18,8,8,0,0,1-6-2.41,8.5,8.5,0,0,1-2.32-6.15,8.79,8.79,0,0,1,2.29-6.06,7.68,7.68,0,0,1,11.44,0,8.16,8.16,0,0,1,2.28,5.54A1.74,1.74,0,0,1,86.17,127.89Zm-9.61-3h7.11a4.18,4.18,0,0,0-1.1-2.46,3.59,3.59,0,0,0-4.88,0A3.9,3.9,0,0,0,76.56,124.93Z" transform="translate(-5.35 -14.57)"/><path class="cls-1" d="M91.39,132.34V120.23a2.06,2.06,0,0,1,.68-1.64,2.39,2.39,0,0,1,1.61-.59,2.71,2.71,0,0,1,1.57.41,1.63,1.63,0,0,1,.59,1.45A3.94,3.94,0,0,1,99.05,118a2.15,2.15,0,0,1,1.5.62,2.3,2.3,0,0,1,.67,1.76,1.46,1.46,0,0,1-1,1.46l-1.7.71a9.83,9.83,0,0,0-2.06,1.2,2.18,2.18,0,0,0-.66,1.76v6.83a2.64,2.64,0,0,1-.6,1.78,2.06,2.06,0,0,1-1.63.69,2,2,0,0,1-1.62-.69A2.64,2.64,0,0,1,91.39,132.34Z" transform="translate(-5.35 -14.57)"/><path class="cls-1" d="M108.17,113.77a2.5,2.5,0,0,1-.73,1.79,2.31,2.31,0,0,1-1.77.78,2.42,2.42,0,0,1-1.75-.76,2.46,2.46,0,0,1-.76-1.81,2.36,2.36,0,0,1,.74-1.7,2.45,2.45,0,0,1,1.77-.74,2.49,2.49,0,0,1,1.74.71A2.26,2.26,0,0,1,108.17,113.77Zm-4.73,18.57V120.48a2.63,2.63,0,0,1,.6-1.78,2.24,2.24,0,0,1,3.25,0,2.63,2.63,0,0,1,.6,1.78v11.86a2.64,2.64,0,0,1-.6,1.78,2.26,2.26,0,0,1-3.25,0A2.64,2.64,0,0,1,103.44,132.34Z" transform="translate(-5.35 -14.57)"/><path class="cls-1" d="M112.09,132.34V120.48a2.58,2.58,0,0,1,.61-1.78,2,2,0,0,1,1.62-.7,1.81,1.81,0,0,1,2,1.64,4,4,0,0,1,1.7-1.39,7.16,7.16,0,0,1,2.62-.43,6.12,6.12,0,0,1,4.39,1.6,5.78,5.78,0,0,1,1.7,4.39v8.53a2.64,2.64,0,0,1-.6,1.78,2,2,0,0,1-1.62.69,2.07,2.07,0,0,1-1.63-.69,2.64,2.64,0,0,1-.6-1.78v-7.75a3.09,3.09,0,0,0-.8-2.28,2.9,2.9,0,0,0-2.1-.78,2.67,2.67,0,0,0-2.12.85,3.2,3.2,0,0,0-.76,2.21v7.75a2.64,2.64,0,0,1-.6,1.78,2.25,2.25,0,0,1-3.24,0A2.6,2.6,0,0,1,112.09,132.34Z" transform="translate(-5.35 -14.57)"/><path class="cls-1" d="M146.3,120.91v11a5.18,5.18,0,0,1-.36,2.08c-.23.55-.83.82-1.77.82a1.91,1.91,0,0,1-1.39-.48,3,3,0,0,1-.75-1.4A5.25,5.25,0,0,1,137.8,135a6.72,6.72,0,0,1-5.28-2.4,9,9,0,0,1-2.1-6.16,9.1,9.1,0,0,1,2.13-6.15,6.66,6.66,0,0,1,5.25-2.47,5.69,5.69,0,0,1,2.41.51,4.42,4.42,0,0,1,1.82,1.53,2,2,0,0,1,.72-1.33,2.12,2.12,0,0,1,1.42-.53c.92,0,1.51.28,1.76.82A5.22,5.22,0,0,1,146.3,120.91Zm-7.88,10a2.84,2.84,0,0,0,2.53-1.36,5.54,5.54,0,0,0,.9-3.12,5.72,5.72,0,0,0-.9-3.14,2.84,2.84,0,0,0-2.53-1.4,3,3,0,0,0-2.64,1.37,5.61,5.61,0,0,0-.91,3.17,5.47,5.47,0,0,0,.91,3.12A3,3,0,0,0,138.42,130.92Z" transform="translate(-5.35 -14.57)"/><path class="cls-1" d="M150.53,132.34V120.23a2.06,2.06,0,0,1,.68-1.64,2.39,2.39,0,0,1,1.61-.59,2.71,2.71,0,0,1,1.57.41,1.6,1.6,0,0,1,.59,1.45,3.94,3.94,0,0,1,3.21-1.86,2.15,2.15,0,0,1,1.5.62,2.26,2.26,0,0,1,.67,1.76,1.46,1.46,0,0,1-1,1.46l-1.7.71a9.45,9.45,0,0,0-2,1.2,2.15,2.15,0,0,0-.67,1.76v6.83a2.64,2.64,0,0,1-.6,1.78,2,2,0,0,1-1.62.69,2.07,2.07,0,0,1-1.63-.69A2.64,2.64,0,0,1,150.53,132.34Z" transform="translate(-5.35 -14.57)"/><path class="cls-1" d="M168.31,113.77a2.53,2.53,0,0,1-.72,1.79,2.35,2.35,0,0,1-1.78.78,2.44,2.44,0,0,1-1.75-.76,2.49,2.49,0,0,1-.75-1.81,2.32,2.32,0,0,1,.74-1.7,2.41,2.41,0,0,1,1.76-.74,2.47,2.47,0,0,1,1.74.71A2.26,2.26,0,0,1,168.31,113.77Zm-4.73,18.57V120.48a2.58,2.58,0,0,1,.61-1.78,2.22,2.22,0,0,1,3.24,0,2.63,2.63,0,0,1,.6,1.78v11.86a2.64,2.64,0,0,1-.6,1.78,2.25,2.25,0,0,1-3.24,0A2.6,2.6,0,0,1,163.58,132.34Z" transform="translate(-5.35 -14.57)"/><path class="cls-1" d="M186.49,120.91v11a5.18,5.18,0,0,1-.36,2.08c-.23.55-.83.82-1.77.82a1.91,1.91,0,0,1-1.39-.48,2.86,2.86,0,0,1-.74-1.4A5.29,5.29,0,0,1,178,135a6.72,6.72,0,0,1-5.28-2.4,9,9,0,0,1-2.1-6.16,9.1,9.1,0,0,1,2.13-6.15,6.66,6.66,0,0,1,5.25-2.47,5.69,5.69,0,0,1,2.41.51,4.52,4.52,0,0,1,1.83,1.53,1.94,1.94,0,0,1,.71-1.33,2.12,2.12,0,0,1,1.42-.53c.93,0,1.51.28,1.76.82A5,5,0,0,1,186.49,120.91Zm-7.88,10a2.84,2.84,0,0,0,2.53-1.36,5.54,5.54,0,0,0,.9-3.12,5.72,5.72,0,0,0-.9-3.14,2.84,2.84,0,0,0-2.53-1.4,3,3,0,0,0-2.64,1.37,5.61,5.61,0,0,0-.91,3.17,5.47,5.47,0,0,0,.91,3.12A3,3,0,0,0,178.61,130.92Z" transform="translate(-5.35 -14.57)"/><path class="cls-1" d="M199.27,123.63a11.57,11.57,0,0,1,3-8.13,10.58,10.58,0,0,1,15.3.06,12.45,12.45,0,0,1,.06,16.19,10.68,10.68,0,0,1-15.34,0A11.53,11.53,0,0,1,199.27,123.63Zm16.47,0a8.3,8.3,0,0,0-1.51-5,5,5,0,0,0-4.3-2.07,5.1,5.1,0,0,0-4.29,2,9.2,9.2,0,0,0,0,10.16,5.59,5.59,0,0,0,8.61,0A8.27,8.27,0,0,0,215.74,123.63Z" transform="translate(-5.35 -14.57)"/><path class="cls-1" d="M223.91,132.34V120.48a2.63,2.63,0,0,1,.6-1.78,2,2,0,0,1,1.62-.7,1.8,1.8,0,0,1,2,1.64,4,4,0,0,1,1.7-1.39,7.21,7.21,0,0,1,2.63-.43,6.15,6.15,0,0,1,4.39,1.6,5.78,5.78,0,0,1,1.7,4.39v8.53a2.65,2.65,0,0,1-.61,1.78,2.25,2.25,0,0,1-3.24,0,2.64,2.64,0,0,1-.6-1.78v-7.75a3.05,3.05,0,0,0-.81-2.28,2.87,2.87,0,0,0-2.1-.78,2.69,2.69,0,0,0-2.12.85,3.2,3.2,0,0,0-.75,2.21v7.75a2.64,2.64,0,0,1-.6,1.78,2.07,2.07,0,0,1-1.63.69,2,2,0,0,1-1.62-.69A2.64,2.64,0,0,1,223.91,132.34Z" transform="translate(-5.35 -14.57)"/><path class="cls-1" d="M243.82,132.34v-19a2.6,2.6,0,0,1,.6-1.77,2.25,2.25,0,0,1,3.24,0,2.56,2.56,0,0,1,.61,1.77v19a2.57,2.57,0,0,1-.61,1.78,2.25,2.25,0,0,1-3.24,0A2.61,2.61,0,0,1,243.82,132.34Z" transform="translate(-5.35 -14.57)"/><path class="cls-1" d="M257.14,113.77a2.54,2.54,0,0,1-.73,1.79,2.34,2.34,0,0,1-1.78.78,2.4,2.4,0,0,1-1.74-.76,2.46,2.46,0,0,1-.76-1.81,2.36,2.36,0,0,1,.74-1.7,2.43,2.43,0,0,1,1.76-.74,2.51,2.51,0,0,1,1.75.71A2.3,2.3,0,0,1,257.14,113.77Zm-4.73,18.57V120.48a2.63,2.63,0,0,1,.6-1.78,2.22,2.22,0,0,1,3.24,0,2.58,2.58,0,0,1,.61,1.78v11.86a2.6,2.6,0,0,1-.61,1.78,2.25,2.25,0,0,1-3.24,0A2.64,2.64,0,0,1,252.41,132.34Z" transform="translate(-5.35 -14.57)"/><path class="cls-1" d="M261.06,132.34V120.48a2.63,2.63,0,0,1,.6-1.78,2.08,2.08,0,0,1,1.63-.7,1.8,1.8,0,0,1,2,1.64,4,4,0,0,1,1.7-1.39,7.25,7.25,0,0,1,2.63-.43,6.15,6.15,0,0,1,4.39,1.6,5.78,5.78,0,0,1,1.7,4.39v8.53a2.64,2.64,0,0,1-.6,1.78,2.07,2.07,0,0,1-1.63.69,2,2,0,0,1-1.62-.69,2.64,2.64,0,0,1-.6-1.78v-7.75a3.05,3.05,0,0,0-.81-2.28,2.87,2.87,0,0,0-2.1-.78,2.66,2.66,0,0,0-2.11.85,3.16,3.16,0,0,0-.76,2.21v7.75a2.64,2.64,0,0,1-.6,1.78,2,2,0,0,1-1.62.69,2.07,2.07,0,0,1-1.63-.69A2.64,2.64,0,0,1,261.06,132.34Z" transform="translate(-5.35 -14.57)"/><path class="cls-1" d="M293.13,127.89h-9.51a3.39,3.39,0,0,0,1.4,2.41,4.82,4.82,0,0,0,2.83.81,8.16,8.16,0,0,0,3-.9l2-.9a1.66,1.66,0,0,1,1.26.61,1.91,1.91,0,0,1,.56,1.31c0,1-.79,1.81-2.36,2.59a10.81,10.81,0,0,1-4.9,1.18,8,8,0,0,1-6.06-2.41,8.54,8.54,0,0,1-2.32-6.15,8.83,8.83,0,0,1,2.29-6.06,7.69,7.69,0,0,1,11.45,0,8.2,8.2,0,0,1,2.27,5.54A1.74,1.74,0,0,1,293.13,127.89Zm-9.61-3h7.11a4.12,4.12,0,0,0-1.1-2.46,3.22,3.22,0,0,0-2.45-.94,3.29,3.29,0,0,0-2.43,1A4,4,0,0,0,283.52,124.93Z" transform="translate(-5.35 -14.57)"/><path class="cls-1" d="M26.6,86.29,6,33.91a9.06,9.06,0,0,1-.66-3.48,6.21,6.21,0,0,1,2.16-4.84,7.37,7.37,0,0,1,5.08-1.93,6.12,6.12,0,0,1,3.9,1.22A8.47,8.47,0,0,1,19,28.27L33.66,67.39,48.23,28.27a9.74,9.74,0,0,1,2.54-3.39,6,6,0,0,1,3.86-1.22,8,8,0,0,1,5.08,1.88,6.37,6.37,0,0,1,2.16,4.89,9.06,9.06,0,0,1-.66,3.48L40.62,86.29a11.88,11.88,0,0,1-2.68,4.14,6.2,6.2,0,0,1-4.28,1.32,6.35,6.35,0,0,1-4.47-1.51A10.12,10.12,0,0,1,26.6,86.29Z" transform="translate(-5.35 -14.57)"/><path class="cls-1" d="M100.33,70.68h-29A10.38,10.38,0,0,0,75.64,78a14.73,14.73,0,0,0,8.61,2.44c2.13,0,5.2-.9,9.21-2.72L99.58,75a5.13,5.13,0,0,1,3.85,1.83,5.8,5.8,0,0,1,1.69,4q0,4.34-7.19,7.9A33.18,33.18,0,0,1,83,92.31q-11.37,0-18.43-7.33T57.54,66.26a26.79,26.79,0,0,1,7-18.43A22.36,22.36,0,0,1,81.9,40a22.37,22.37,0,0,1,17.44,7.76q6.91,7.76,6.91,16.88C106.25,68.68,104.28,70.68,100.33,70.68Zm-29.25-9H92.71a12.61,12.61,0,0,0-3.34-7.47,9.92,9.92,0,0,0-7.47-2.87,10.06,10.06,0,0,0-7.39,3A11.91,11.91,0,0,0,71.08,61.65Z" transform="translate(-5.35 -14.57)"/><path class="cls-1" d="M114.53,84.23V53h-3a5.52,5.52,0,0,1-5.93-5.92,5.79,5.79,0,0,1,5.93-5.93h3V33.06a8,8,0,0,1,1.83-5.4,6.82,6.82,0,0,1,9.88,0,8,8,0,0,1,1.83,5.4v8.09h4a7.27,7.27,0,0,1,4.66,1.46,5.36,5.36,0,0,1,1.83,4.47,5.39,5.39,0,0,1-1.79,4.46A7.16,7.16,0,0,1,132,53h-4V84.23a8,8,0,0,1-1.83,5.4,6.82,6.82,0,0,1-9.88,0A8,8,0,0,1,114.53,84.23Z" transform="translate(-5.35 -14.57)"/><path class="cls-1" d="M250.52,84.23V48.11a8,8,0,0,1,1.83-5.41,6.2,6.2,0,0,1,4.94-2.11q5.44,0,6.2,5a12.19,12.19,0,0,1,5.18-4.23,21.93,21.93,0,0,1,8-1.32q8.19,0,13.35,4.89t5.18,13.36v26a7.91,7.91,0,0,1-1.84,5.4,6.8,6.8,0,0,1-9.87,0,8,8,0,0,1-1.83-5.4V60.62q0-4.51-2.45-6.91a8.74,8.74,0,0,0-6.4-2.4,8.18,8.18,0,0,0-6.44,2.59,9.74,9.74,0,0,0-2.3,6.72V84.23a7.91,7.91,0,0,1-1.84,5.4,6.8,6.8,0,0,1-9.87,0A8,8,0,0,1,250.52,84.23Z" transform="translate(-5.35 -14.57)"/><path class="cls-2" d="M207.13,16.68a6.84,6.84,0,0,0-9.88,0,8,8,0,0,0-1.83,5.41V50.18a8,8,0,0,0,1.83,5.41,6.84,6.84,0,0,0,9.88,0A8,8,0,0,0,209,50.18V22.09A8,8,0,0,0,207.13,16.68Z" transform="translate(-5.35 -14.57)"/><path class="cls-3" d="M215.12,18.75c24.39,8.73,33,41.69,18.9,62.56-8.47,12.56-24.5,19.67-39.47,16.79-14.43-2.76-25.88-14.58-29.66-28.56a47,47,0,0,1,7.86-39.95" transform="translate(-5.35 -14.57)"/><polygon class="cls-2" points="173.18 8.82 168.75 20.93 167.06 15.55 161.54 14.37 173.18 8.82"/><path class="cls-1" d="M188.78,42.51a12.25,12.25,0,0,0,2.35-4.63c.59-3.38-1.2-7.2-4.73-8-3.29-.75-6.07.89-8.27,3.26-7.82,8.41-9.76,21.69-7.4,32.59a42.43,42.43,0,0,0,1.14,4.19,33.64,33.64,0,0,0,12.9,17c12.08,8.48,30.2,3.81,33.26.92a18.45,18.45,0,0,1,2.15-1.4,39.56,39.56,0,0,0,5-4.21c7.06-7,10.1-17.86,9.25-27.62A73.14,73.14,0,0,0,233.3,47s-2.77-9.56-8.13-14.58S215,31.94,215,31.94s-4.12,4.14.1,9.54,4.73,14,4.73,14,1.94,21.57-16.52,23.4c-8.74.87-14.91-4.73-17.43-12.72a29.37,29.37,0,0,1-.83-14.68,27.07,27.07,0,0,1,2.46-6.94A19.22,19.22,0,0,1,188.78,42.51Z" transform="translate(-5.35 -14.57)"/></svg>