<svg id="Capa_1" data-name="Capa 1" xmlns="http://www.w3.org/2000/svg" viewBox="0 0 230.75 143.96"><defs><style>.cls-1{opacity:0.39;}.cls-2{fill:#c7c7c7;opacity:0.59;}.cls-3{fill:#e3e3e3;}.cls-4{fill:#ccc;}.cls-5{fill:#787878;}.cls-16,.cls-6{fill:#7f7f7f;}.cls-7{fill:#b8b8b8;}.cls-8{fill:#fbfbfb;}.cls-9{fill:#424242;}.cls-10{fill:#404040;}.cls-11{fill:#535353;}.cls-12{fill:#828282;}.cls-13,.cls-15{fill:#3d3d3d;}.cls-13{opacity:0.56;}.cls-14{fill:#e8e8e8;}.cls-16{font-size:36px;font-family:Poppins-SemiBold, Poppins;font-weight:600;}</style></defs><title>ups</title><g class="cls-1"><ellipse class="cls-2" cx="184.96" cy="138.47" rx="45.8" ry="5"/><path class="cls-3" d="M208.27,121.33c-.63-5.78-17.19-6.73-19.17-6.82h-.19c-2,.09-15.24.49-15.87,6.27,0,0-7.38,17.89-4.88,27.28,0,0-6.15,9.36,4.51,9.3a1.85,1.85,0,0,0,.54.54,3.18,3.18,0,0,0,1.46.35,30.29,30.29,0,0,0,7.84-.48c.59-.12,1.29-.37,1.37-1a1.68,1.68,0,0,0-.21-.83,7.19,7.19,0,0,1-.51-2.28,17.29,17.29,0,0,0,12.53.3,7.32,7.32,0,0,1-.39,1.31,1.69,1.69,0,0,0-.21.84c.08.59.78.84,1.37.95a29.86,29.86,0,0,0,7.84.49,4.05,4.05,0,0,0,1.2-.23c10.82,0,11.62-7.87,11.62-7.87C219.62,140.1,208.27,121.33,208.27,121.33Z" transform="translate(-10.84 -19.22)"/><path class="cls-4" d="M180.24,125a19.76,19.76,0,0,0,4.31,16.74,8.1,8.1,0,0,0,2-2.78,8.82,8.82,0,0,1,2,6.12,15.72,15.72,0,0,0,9.75-9.54,9.39,9.39,0,0,1,1.41,3.5c1.89-2.26,2.3-5.41,2.25-8.35,0-2.7-.54-5.65-2.59-7.4-1.89-1.6-4.57-1.76-7.05-1.83-3.79-.12-7.84-.17-11,1.84-.78.5-1.57,1.4-1.18,2.24" transform="translate(-10.84 -19.22)"/><path class="cls-5" d="M174.57,153.87c-2.06-12.58,6.14-29.41,6.14-29.41L173.25,122c-6.2,6.55-8.43,13.14-8.79,18.84a4.81,4.81,0,0,0-.54.41s-4.49,4.13.75,11.5c0,0-4.07,2.15-2.32,4.52a2,2,0,0,0,1.13.53c.52.11,1.53-.11,3.22,0,0,0,5.89.13,7.14.26.82.09,1.41.12,1.73.13h.26c.23,0,0-.35-.2-.68Z" transform="translate(-10.84 -19.22)"/><path class="cls-5" d="M205.89,153.07c2.06-12.57-6.14-29.4-6.14-29.4l1.6-3.26c-.33-1.31,5.86.78,5.86.78,6.2,6.55,8.43,13.13,8.79,18.83a4.94,4.94,0,0,1,.54.42s4.49,4.12-.75,11.49c0,0,4.07,2.15,2.32,4.53A2,2,0,0,1,217,157c-.52.1-1.53-.12-3.22,0,0,0-5.89.13-7.14.27-.82.08-1.41.11-1.73.12h-.26c-.23,0,0-.35.2-.68Z" transform="translate(-10.84 -19.22)"/><path class="cls-5" d="M207.79,156.59l25.89.8s-4.39-25.87-19.45-17.26c-3.72,2.12-5,10.88-5,10.88Z" transform="translate(-10.84 -19.22)"/><path class="cls-5" d="M215.17,138.88c2.54-1.56,5.83-1.19,8.63-.18a14.23,14.23,0,0,1,5.2,3.12,8.33,8.33,0,0,1,2.57,5.38,5.52,5.52,0,0,0-7.46.06" transform="translate(-10.84 -19.22)"/><path class="cls-6" d="M202.15,100c-9-7.68-16.73-3.88-19.84-1.69a14.41,14.41,0,0,0-2.16,1.69s-11.09,11.25-7.68,22.11c0,0,3.66,9.09,13.5-5.12,0,0,1.44-7,5.18-7.7,3.73.75,5.18,7.7,5.18,7.7,6.14,14.27,13.5,5.12,13.5,5.12C213.24,111.23,202.15,100,202.15,100Z" transform="translate(-10.84 -19.22)"/><path class="cls-4" d="M184.69,122.6s4.32,4,13.83.44l-6.42-9.84-5.2,1.32Z" transform="translate(-10.84 -19.22)"/><path class="cls-3" d="M203.08,122.19c-1.31-.31-3.6-2.5-3.6-2.5-1.24-.86-4.37-7.86-4.37-7.86a8,8,0,0,0-1.32-2v0a1.85,1.85,0,0,0-.27-.23,3.4,3.4,0,0,0-4.78,0,3,3,0,0,0-.27.23v0a8.27,8.27,0,0,0-1.32,2s-2.89,7.21-4.13,8.06c0,0-1.36,1.36-2.84,3a15.13,15.13,0,0,0-1,1.35c-.24.42.68,1.29,3.06.91,0,0,6.87-1,8.57-7.9l.29-1.11.29,1.11c1.71,6.91,8.57,7.9,8.57,7.9,2.39.38,3.44-1.07,3.6-1.52C203.86,122.91,203.08,122.19,203.08,122.19Z" transform="translate(-10.84 -19.22)"/><path class="cls-4" d="M178.5,101.67c-.09,0-1.39-5.81-1.39-5.81s-.33-1,.12-1.1a7.51,7.51,0,0,1,1.38.54l4.84,3.46S179.19,101.92,178.5,101.67Z" transform="translate(-10.84 -19.22)"/><path class="cls-6" d="M178.4,102s-1.37-4.65-1.64-6.46c0,0-.15-1.62,1.23-1,0,0,5.06,3.26,5.78,3.87l-.84,1.11s-4.78-4.35-5.26-4.4c0,0-.52-.31-.38.38,0,.23,1.47,5.87,1.47,5.87S179.24,102.4,178.4,102Z" transform="translate(-10.84 -19.22)"/><path class="cls-4" d="M203.6,101.48c.1,0,1.7-6.21,1.7-6.21s.34-1-.11-1.1a6.61,6.61,0,0,0-1.38.54L199,98.17S202.91,101.73,203.6,101.48Z" transform="translate(-10.84 -19.22)"/><path class="cls-6" d="M204.06,102.53s1.72-5.47,2-7.29c0,0,.46-2.11-1.62-1.2,0,0-5.06,3.26-5.78,3.87l.83,1.11s4.79-4.35,5.27-4.4c0,0,.52-.31.38.37,0,.23-1.48,5.88-1.48,5.88S203.22,102.89,204.06,102.53Z" transform="translate(-10.84 -19.22)"/><path class="cls-7" d="M193.12,110.78c0-.53-.87-1-2-1s-2,.36-2,.89c0,.29.26.56.69.75.07.46.64.83,1.35.86s1.37-.36,1.41-.85C192.89,111.25,193.11,111,193.12,110.78Z" transform="translate(-10.84 -19.22)"/><path class="cls-8" d="M181.76,108s2.47,3,5.61,1.48c0,0-.28-4.42-3.41-3.22C183.81,106.32,182.06,107.1,181.76,108Z" transform="translate(-10.84 -19.22)"/><path class="cls-9" d="M183.89,109.61c.07,0,1.94-2.25.07-3.35A4,4,0,0,0,181.7,108,4.56,4.56,0,0,0,183.89,109.61Z" transform="translate(-10.84 -19.22)"/><path class="cls-8" d="M200.48,109.14s-3.21,2.2-5.79-.16c0,0,1.5-4.16,4.18-2.13C199,107,200.45,108.2,200.48,109.14Z" transform="translate(-10.84 -19.22)"/><path class="cls-9" d="M197,110.06c.07,0,1.6-2.51-.48-3.49a4.13,4.13,0,0,0-1.8,2.41A3.19,3.19,0,0,0,197,110.06Z" transform="translate(-10.84 -19.22)"/><ellipse class="cls-2" cx="45.8" cy="138.96" rx="45.8" ry="5"/><path class="cls-10" d="M70.66,134.91c1.36,2.24,3.22,4.12,4.78,6.23s4.48,4.72,4.37,7.34c-.09,1.84,0,6-1.88,6.39-2.14.12-4.16,1.72-3.23,3.65a2.87,2.87,0,0,0,3.18.1,8.35,8.35,0,0,0,2.4-2.34L82.87,153c1.73-2.21,3.52-4.58,3.89-7.37a4.31,4.31,0,0,0-.24-2.36,5.56,5.56,0,0,0-.91-1.34c-2.73-3.26-6-6.2-10.09-7.52-1.27-.42-4.42-1.72-5-.51" transform="translate(-10.84 -19.22)"/><path class="cls-10" d="M53.42,127.91S45.24,123,42.08,127a16,16,0,0,0,2,11.4l1.84,3.81,2.38,11.27-.82.1c-.61-.05-3-.11-3.67,1.73a2.1,2.1,0,0,0-.26,2.07h0l7.62-.19L51,155.29l.2-14.19S54.57,129.69,53.42,127.91Z" transform="translate(-10.84 -19.22)"/><path class="cls-11" d="M88.63,138.71A10.22,10.22,0,0,1,87,131.86v0c.35-2.53,1.63-15.17-7.34-17,0,0-18.54-4.87-26-3.41a34.12,34.12,0,0,1-10.84-5.61l-12.44,3.67S27,120.29,35.49,127.35A18.9,18.9,0,0,0,49.84,134a14.75,14.75,0,0,0,1.36,5.68l1.34,4s-1.4,7.24-.13,10.71l.22.76c-.61-.13-2.92-.49-3.87,1.25a4.12,4.12,0,0,0-.36,2.68l.12.54,7.3-.42.06-1.95,1.77-14.12s1.66-3.55,2.9-6.93a21,21,0,0,0,11-1.27,24.2,24.2,0,0,0,5.27,4.24l4.94,3.47s2.83,2.15,1.27,3.93L78.22,156s-3.92,1.28-3.28,4.2l4.56-.09s6.94-9,9.36-14.79C88.86,145.28,91.33,141.72,88.63,138.71Z" transform="translate(-10.84 -19.22)"/><path class="cls-11" d="M68.52,88.2s12.55-.51,14.84,9c0,0,5,13.86-3.67,17.63,0,0,1.68,7.86,6.42,6,0,0,11.35-18.66-1.84-31.58,0,0-11.08-10.26-22.85-1.6,0,0-4.5,4.14-.24,8.89,0,0,2.07,1.58,2.07-1.82C63.25,94.73,63.38,88.74,68.52,88.2Z" transform="translate(-10.84 -19.22)"/><path class="cls-11" d="M44.46,100.39c-.21-2.44-.8-5.42-.8-5.42-.68-1.74-.54-3.2-9.28-2.81-8.84-.75-6.73,1.77-8.93,3a51.19,51.19,0,0,0-.82,5.3s-1.56,5.2,5,9.77c0,0,3.93,2.19,6.12,1.37v0a15.29,15.29,0,0,0,3.67-1.4C46,105.59,44.46,100.39,44.46,100.39Z" transform="translate(-10.84 -19.22)"/><path class="cls-11" d="M22.67,87.56s.1,5.7,1.38,8.26a12.32,12.32,0,0,0,.68,3l.11.19c.55.85,4.63-6.36,4.63-6.36L27.15,90.1a10.12,10.12,0,0,0-2.09-2.33C24.13,87.11,22.75,86.74,22.67,87.56Z" transform="translate(-10.84 -19.22)"/><path class="cls-12" d="M25.63,97.13A43.06,43.06,0,0,1,23.91,90s-.25-1.39.09-1.55c0,0,.3-.26,1.27,1L28.37,93S26.82,97.43,25.63,97.13Z" transform="translate(-10.84 -19.22)"/><path class="cls-11" d="M45,86.85s.46,5.69-.56,8.36a12.07,12.07,0,0,1-.39,3.08,2,2,0,0,1-.09.2c-.46.91-5.22-5.88-5.22-5.88l2-2.8a10.18,10.18,0,0,1,1.86-2.52C43.52,86.54,44.85,86,45,86.85Z" transform="translate(-10.84 -19.22)"/><path class="cls-12" d="M43,96.66a42.37,42.37,0,0,0,1-7.3s.12-1.41-.24-1.54c0,0-.32-.23-1.16,1.14l-2.74,3.88S41.85,97.08,43,96.66Z" transform="translate(-10.84 -19.22)"/><path class="cls-13" d="M29.05,92.16a3.39,3.39,0,0,0,.95,2,27.37,27.37,0,0,0,2.44,2.79c.11.11.36.23.49.13s0-.08,0-.13a3.63,3.63,0,0,0-.21-.88,10.71,10.71,0,0,1-.54-4,21.27,21.27,0,0,0-3.18.14" transform="translate(-10.84 -19.22)"/><path class="cls-13" d="M39.29,92.13a3.38,3.38,0,0,1-.64,2.14,29.43,29.43,0,0,1-2.44,2.89c-.11.11-.36.23-.49.13a.15.15,0,0,1,0-.13,3.25,3.25,0,0,1,.21-.91,11.83,11.83,0,0,0,.54-4.16c1,0,1.63,0,2.69,0" transform="translate(-10.84 -19.22)"/><path class="cls-13" d="M33.13,92.07c0,.4.13,1,.17,1.38.2,1.68.39,3.35.58,5,0,.16.14.38.28.31a.2.2,0,0,0,.11-.13,11.57,11.57,0,0,0,.85-3.44l.36-2.5a.77.77,0,0,0,0-.15c0-.09.08-.45,0-.46-.55-.09-1.91,0-2.38,0" transform="translate(-10.84 -19.22)"/><path class="cls-14" d="M27.17,100.79a4,4,0,0,0,3.72.85,3.24,3.24,0,0,0,1.11-.78s-1.29-2.7-3.66-1.89A2,2,0,0,0,27.17,100.79Z" transform="translate(-10.84 -19.22)"/><path class="cls-15" d="M30.08,99s-2,1.58-.65,2.8a2.62,2.62,0,0,0,2.61-.85A3.28,3.28,0,0,0,30.08,99Z" transform="translate(-10.84 -19.22)"/><path class="cls-14" d="M42.23,100.09a3.65,3.65,0,0,1-3.54,1.43,3,3,0,0,1-1.21-.55s.66-2.89,3.14-2.48A2.11,2.11,0,0,1,42.23,100.09Z" transform="translate(-10.84 -19.22)"/><path class="cls-15" d="M40.24,98.45s-1.37,1.91-.4,3.07a3.3,3.3,0,0,0,2.39-1.43A1.84,1.84,0,0,0,40.24,98.45Z" transform="translate(-10.84 -19.22)"/><path class="cls-14" d="M38.87,104.51c0,1.54-2.18,4.34-4.75,4.34s-4.56-2.8-4.56-4.34,2.08-2.78,4.65-2.78S38.87,103,38.87,104.51Z" transform="translate(-10.84 -19.22)"/><path class="cls-12" d="M34.26,104.64s-.51,3.18-3,2.7l-.4-.1-.27-.28a2.84,2.84,0,0,0,1.87,0,2.77,2.77,0,0,0,1.49-2.45Z" transform="translate(-10.84 -19.22)"/><path class="cls-12" d="M34.2,104.47s.5,3.18,3,2.7l.41-.09.26-.29a2.85,2.85,0,0,1-1.87,0,2.73,2.73,0,0,1-1.49-2.45Z" transform="translate(-10.84 -19.22)"/><path class="cls-10" d="M36,103.33c0-.46-.79-.83-1.78-.84s-1.78.36-1.78.81c0,.25.24.48.62.63.07.39.58.7,1.22.71s1.2-.33,1.23-.76C35.79,103.74,36,103.54,36,103.33Z" transform="translate(-10.84 -19.22)"/><text class="cls-16" transform="translate(79.32 30.62)">Ups!</text></g></svg>