<svg xmlns="http://www.w3.org/2000/svg" viewBox="0 0 209.25 59.52"><defs><style>.cls-1{fill:#884581;}.cls-2{fill:#701877;}</style></defs><title>Recurso 1</title><g id="Capa_2" data-name="Capa 2"><g id="Capa_1-2" data-name="Capa 1"><path class="cls-1" d="M16.27,54.91.5,14.81A7.09,7.09,0,0,1,0,12.14,4.77,4.77,0,0,1,1.66,8.43,5.66,5.66,0,0,1,5.54,7a4.7,4.7,0,0,1,3,.93,6.58,6.58,0,0,1,1.91,2.6L21.67,40.44,32.83,10.49a7.4,7.4,0,0,1,2-2.6A4.53,4.53,0,0,1,37.73,7,6.11,6.11,0,0,1,41.62,8.4a4.88,4.88,0,0,1,1.65,3.74,7.09,7.09,0,0,1-.5,2.67L27,54.91A9.13,9.13,0,0,1,25,58.08a4.77,4.77,0,0,1-3.28,1,4.87,4.87,0,0,1-3.42-1.16,7.72,7.72,0,0,1-2-3"/><path class="cls-1" d="M73.61,43H51.43a7.94,7.94,0,0,0,3.28,5.62,11.31,11.31,0,0,0,6.58,1.87q2.46,0,7.06-2.09L73,46.27a3.92,3.92,0,0,1,3,1.41,4.39,4.39,0,0,1,1.3,3.06c0,2.2-1.84,4.22-5.51,6a25.29,25.29,0,0,1-11.41,2.74q-8.72,0-14.11-5.62t-5.4-14.32a20.53,20.53,0,0,1,5.32-14.12,17.14,17.14,0,0,1,13.32-6,17.13,17.13,0,0,1,13.36,5.94,19.05,19.05,0,0,1,5.29,12.92q0,4.6-4.53,4.61m-22.4-6.91H67.77a9.68,9.68,0,0,0-2.55-5.73,8.37,8.37,0,0,0-11.38.08,9.09,9.09,0,0,0-2.63,5.65"/><path class="cls-1" d="M84.48,53.33V29.42H82.17a4.21,4.21,0,0,1-4.53-4.53,4.43,4.43,0,0,1,4.53-4.54h2.31V14.16A6.12,6.12,0,0,1,85.88,10a5.22,5.22,0,0,1,7.56,0,6.08,6.08,0,0,1,1.41,4.14v6.19h3a5.49,5.49,0,0,1,3.56,1.12,4.08,4.08,0,0,1,1.41,3.42,4.18,4.18,0,0,1-1.37,3.42,5.53,5.53,0,0,1-3.6,1.11h-3V53.33a6.08,6.08,0,0,1-1.41,4.14,5.22,5.22,0,0,1-7.56,0,6.12,6.12,0,0,1-1.4-4.14"/><path class="cls-2" d="M175.05,53.33V25.68a6.08,6.08,0,0,1,1.41-4.14,4.73,4.73,0,0,1,3.78-1.62q4.17,0,4.75,3.81a9.37,9.37,0,0,1,4-3.24,16.92,16.92,0,0,1,6.12-1,14.3,14.3,0,0,1,10.22,3.74q4,3.75,4,10.23V53.33a6.12,6.12,0,0,1-1.4,4.14,5.22,5.22,0,0,1-7.56,0,6.08,6.08,0,0,1-1.41-4.14V35.26A7.09,7.09,0,0,0,197,30a6.7,6.7,0,0,0-4.89-1.83,6.27,6.27,0,0,0-4.94,2,7.47,7.47,0,0,0-1.76,5.15V53.33a6.12,6.12,0,0,1-1.4,4.14,5.22,5.22,0,0,1-7.56,0,6.08,6.08,0,0,1-1.41-4.14"/><path class="cls-2" d="M163.68,14.23a23,23,0,0,0-10.24-6.62V18.75A11.5,11.5,0,0,1,156,21.29,19.34,19.34,0,0,1,159.5,33,19.27,19.27,0,0,1,156,44.83a11.72,11.72,0,0,1-10,4.75,11.86,11.86,0,0,1-10-4.71A19.07,19.07,0,0,1,132.36,33,18.94,18.94,0,0,1,136,21.18a11.88,11.88,0,0,1,2.45-2.41V7.55A22.39,22.39,0,0,0,128,14.09q-6.91,7.56-6.92,18.93T128.07,52Q135,59.52,146,59.52T163.82,52q6.92-7.56,6.91-18.94a26.83,26.83,0,0,0-7-18.79"/><path class="cls-2" d="M149.71,1.62a5.22,5.22,0,0,0-7.56,0,6.12,6.12,0,0,0-1.4,4.14v21.5a6.12,6.12,0,0,0,1.4,4.14,5.22,5.22,0,0,0,7.56,0,6.08,6.08,0,0,0,1.41-4.14V5.76a6.08,6.08,0,0,0-1.41-4.14"/></g></g></svg>